<?xml version="1.0" encoding="UTF-8"?><svg id="Capa_1" xmlns="http://www.w3.org/2000/svg" viewBox="0 0 260 260"><defs><style>.cls-1{fill:#fff;}.cls-1,.cls-2{stroke-width:0px;}.cls-2{fill:#1f1f1f;}</style></defs><path class="cls-1" d="M130,0C201.686,0,260,58.313,260,130s-58.313,130-130,130S0,201.686,0,130,58.313,0,130,0ZM194.692,130c0-35.672-29.02-64.692-64.692-64.692s-64.692,29.02-64.692,64.692,29.02,64.692,64.692,64.692,64.692-29.02,64.692-64.692Z"/><circle class="cls-1" cx="130" cy="130" r="64.692"/><path class="cls-2" d="M130,169.409c-21.732,0-39.409-17.678-39.409-39.409s17.678-39.409,39.409-39.409,39.409,17.678,39.409,39.409-17.678,39.409-39.409,39.409ZM130,110.389c-10.814,0-19.611,8.797-19.611,19.611s8.797,19.611,19.611,19.611,19.611-8.797,19.611-19.611-8.797-19.611-19.611-19.611Z"/><path class="cls-2" d="M54.73,90.107c-6.34,11.913-9.964,25.482-9.964,39.893,0,42.499,31.298,77.729,72.036,84.106v-20.008c-29.776-6.123-52.238-32.537-52.238-64.097,0-10.091,2.363-19.617,6.46-28.161l-2.709-1.95-13.585-9.782Z"/><path class="cls-2" d="M191.482,99.889l-2.558,1.842c4.13,8.571,6.513,18.135,6.513,28.269,0,31.561-22.462,57.974-52.238,64.097v20.008c40.737-6.377,72.036-41.607,72.036-84.106,0-14.453-3.642-28.063-10.017-40.001l-13.736,9.89Z"/><path class="cls-2" d="M189.317,68.92c-15.358-14.918-36.266-24.151-59.317-24.151s-44.041,9.265-59.407,24.233l13.147,9.466,3.251,2.341c11.515-10.079,26.54-16.241,43.008-16.241s31.416,6.128,42.919,16.16l3.138-2.26,13.26-9.547Z"/><path class="cls-2" d="M116.801,178.348v56.504h26.398v-56.504h-26.398ZM138.01,214.829v14.016h-16.019v-44.49h16.019v30.473Z"/><path class="cls-2" d="M86.992,80.808l-3.251-2.341-13.147-9.466-3.091-2.225-12.781-9.203-15.425,21.422,12.781,9.203,2.652,1.909,13.585,9.782,2.709,1.95,14.128,10.173,15.425-21.422-13.585-9.782ZM83.309,104.29l-9.843-7.087-1.532-1.103-14.561-10.484-1.616-1.163-8.553-6.159,9.36-12.999,8.553,6.158,1.875,1.35,14.302,10.298,1.844,1.327,9.531,6.863-9.36,12.999Z"/><path class="cls-2" d="M205.075,57.573l-12.78,9.203-2.977,2.144-13.26,9.547-3.138,2.26-13.698,9.863,15.425,21.422,14.278-10.281,2.558-1.842,13.736-9.89,2.501-1.801,12.78-9.203-15.425-21.422ZM204.04,84.452l-1.475,1.062-14.702,10.586-1.391,1.001-9.984,7.189-9.36-12.999,9.654-6.951,1.721-1.239,14.425-10.386,1.752-1.262,8.553-6.158,9.36,12.999-8.553,6.159Z"/></svg>