<?xml version="1.0" standalone="no"?>
<!DOCTYPE svg PUBLIC "-//W3C//DTD SVG 20010904//EN"
 "http://www.w3.org/TR/2001/REC-SVG-20010904/DTD/svg10.dtd">
<svg version="1.0" xmlns="http://www.w3.org/2000/svg"
 width="700.000000pt" height="700.000000pt" viewBox="0 0 700.000000 700.000000"
 preserveAspectRatio="xMidYMid meet">
<metadata>
Created by potrace 1.14, written by Peter Selinger 2001-2017
</metadata>
<g transform="translate(0.000000,700.000000) scale(0.100000,-0.100000)"
fill="#000000" stroke="none">
<path d="M1259 6996 c-2 -2 -29 -7 -59 -10 -70 -8 -231 -49 -297 -75 -372
-147 -659 -427 -802 -786 -30 -73 -67 -200 -77 -255 -2 -14 -8 -52 -13 -85 -6
-37 -9 -908 -8 -2315 2 -2114 3 -2260 20 -2335 68 -309 187 -529 399 -737 189
-184 422 -309 693 -371 89 -21 109 -21 2340 -23 1370 -2 2279 1 2325 7 429 54
814 310 1034 688 64 110 130 278 151 386 34 171 34 151 32 2450 -1 1238 -6
2261 -10 2275 -7 28 -14 60 -22 105 -15 93 -85 272 -154 390 -192 332 -535
584 -901 662 -152 32 -162 32 -2416 32 -1227 1 -2233 -1 -2235 -3z m2516 -600
c28 -4 102 -15 165 -26 492 -87 954 -316 1329 -660 25 -22 48 -40 53 -40 5 0
122 77 260 171 137 95 253 168 257 162 248 -363 385 -564 427 -624 63 -90 78
-66 -126 -204 -232 -158 -300 -206 -300 -215 0 -4 17 -46 38 -92 78 -169 157
-401 178 -527 3 -14 7 -33 9 -41 8 -27 34 -213 41 -295 14 -146 7 -462 -11
-555 -3 -14 -8 -45 -11 -70 -19 -144 -47 -259 -101 -420 -101 -302 -257 -587
-457 -836 -73 -90 -229 -251 -326 -335 -274 -236 -604 -417 -955 -524 -124
-37 -127 -38 -257 -62 -62 -12 -88 -21 -90 -32 -2 -9 -4 -143 -3 -298 l0 -283
-432 0 -433 0 0 303 c0 236 -3 304 -12 304 -21 0 -167 33 -243 55 -334 95
-649 256 -927 476 -128 101 -354 334 -454 467 -295 393 -472 840 -521 1315
-10 96 -10 443 0 540 29 287 125 628 243 862 l34 67 -28 19 c-15 10 -99 68
-187 127 -88 59 -181 123 -207 142 l-48 34 105 152 c57 84 166 243 241 355 76
111 139 202 142 202 4 0 205 -136 407 -276 l90 -62 65 60 c264 241 605 438
958 552 96 31 134 41 227 62 99 22 212 40 310 49 39 4 72 9 74 10 5 6 417 -3
476 -9z"/>
<path d="M3397 5865 c-1 -1 -45 -5 -97 -9 -137 -10 -388 -63 -495 -105 -11 -5
-47 -19 -80 -31 -58 -23 -220 -99 -260 -123 -135 -81 -334 -222 -335 -237 0
-3 92 -68 205 -144 113 -77 205 -142 205 -144 0 -2 -32 -52 -72 -111 -68 -100
-108 -159 -231 -338 -30 -43 -82 -120 -117 -170 -37 -56 -67 -90 -74 -86 -13
7 -182 123 -337 229 l-106 74 -26 -58 c-170 -379 -217 -845 -128 -1267 61
-290 194 -577 382 -827 78 -104 290 -316 389 -389 103 -77 197 -139 209 -139
5 0 11 -3 13 -8 5 -11 175 -97 264 -132 85 -34 239 -84 292 -95 l32 -7 0 256
0 255 433 -2 432 -2 0 -257 c0 -229 2 -258 16 -258 30 0 235 62 339 102 381
149 731 428 957 763 41 61 133 213 133 221 0 2 17 38 38 81 94 194 165 455
187 693 9 103 4 367 -10 445 -2 17 -7 48 -11 70 -10 71 -34 178 -55 250 -28
93 -98 273 -110 281 -5 3 -51 -23 -102 -59 -125 -87 -309 -212 -324 -220 -7
-4 -69 78 -166 221 -85 125 -176 256 -201 292 -25 36 -49 72 -53 80 -4 8 -9
17 -12 20 -22 19 -63 92 -55 99 5 5 93 65 196 135 180 122 211 146 189 146 -6
0 -18 8 -28 18 -27 28 -130 104 -209 155 -325 210 -697 323 -1095 331 -65 1
-120 2 -122 1z m325 -924 c198 -42 369 -124 521 -252 102 -86 112 -96 183
-189 61 -79 87 -122 132 -214 34 -71 74 -176 67 -176 -2 0 3 -19 11 -42 8 -23
17 -66 20 -97 3 -30 7 -58 10 -62 11 -18 4 -240 -10 -314 -20 -108 -23 -120
-42 -179 -182 -560 -760 -906 -1334 -800 -249 46 -451 153 -630 333 -226 228
-342 505 -344 816 0 109 3 150 20 255 18 115 109 324 191 439 53 74 46 66 128
152 153 160 415 301 622 335 155 25 319 24 455 -5z"/>
<path d="M3356 4409 c-124 -30 -240 -93 -321 -174 -71 -71 -137 -187 -166
-290 -94 -343 121 -700 474 -789 92 -23 254 -15 345 17 253 88 425 314 438
575 15 302 -180 569 -473 650 -75 21 -232 27 -297 11z"/>
<path d="M1240 5682 c0 -4 -49 -79 -110 -167 -60 -88 -110 -164 -110 -170 1
-5 49 -42 108 -82 59 -39 145 -98 192 -130 267 -185 649 -443 653 -443 12 0
240 344 231 347 -5 2 -202 136 -439 298 -473 324 -525 358 -525 347z"/>
<path d="M5610 5591 c-69 -47 -190 -131 -270 -185 -250 -171 -332 -227 -443
-303 l-107 -74 114 -167 c63 -92 120 -166 128 -166 13 1 631 420 889 602 l66
47 -39 55 c-21 30 -73 106 -115 168 -42 61 -81 112 -87 111 -6 -1 -67 -40
-136 -88z"/>
<path d="M3259 1997 c0 -7 -2 -269 -5 -582 l-4 -571 210 -2 210 -2 1 378 c1
207 2 465 3 572 1 107 0 200 -2 206 -5 16 -412 17 -413 1z"/>
</g>
</svg>
