<?xml version="1.0" standalone="no"?>
<!DOCTYPE svg PUBLIC "-//W3C//DTD SVG 20010904//EN"
 "http://www.w3.org/TR/2001/REC-SVG-20010904/DTD/svg10.dtd">
<svg version="1.0" xmlns="http://www.w3.org/2000/svg"
 width="700.000000pt" height="700.000000pt" viewBox="0 0 700.000000 700.000000"
 preserveAspectRatio="xMidYMid meet">
<metadata>
Created by potrace 1.11, written by Peter Selinger 2001-2013
</metadata>
<g transform="translate(0.000000,700.000000) scale(0.100000,-0.100000)"
fill="#000000" stroke="none">
<path d="M1660 6993 c-705 -30 -1214 -317 -1479 -831 -91 -177 -152 -395 -167
-597 -7 -100 8 -271 36 -410 110 -541 457 -915 966 -1042 94 -23 129 -27 259
-27 101 0 179 6 240 17 104 21 259 69 327 103 26 13 52 24 57 24 5 0 22 -33
37 -72 40 -108 116 -256 177 -345 29 -43 56 -82 59 -88 4 -7 -357 -9 -1078 -7
l-1084 2 0 -1300 0 -1300 120 0 120 0 0 -561 0 -561 743 5 c789 5 901 10 1367
63 541 61 849 153 1378 410 633 307 1126 665 1674 1215 l277 278 155 -162 156
-162 39 40 c216 221 941 979 941 984 0 3 -191 204 -424 446 l-424 440 62 12
c248 46 442 223 513 468 16 55 18 136 21 923 l3 862 -699 0 -698 0 -117 125
c-576 610 -1461 987 -2452 1045 -150 9 -930 11 -1105 3z m1280 -517 c1128
-141 1939 -650 2335 -1466 28 -58 64 -135 80 -172 32 -78 110 -170 182 -216
47 -30 145 -62 190 -62 l23 0 2 378 3 377 248 3 247 2 -2 -579 c-3 -568 -3
-580 -24 -607 -11 -15 -33 -37 -48 -48 -26 -20 -42 -21 -342 -24 l-314 -3 0
-275 0 -274 27 -43 c14 -23 189 -210 387 -415 199 -206 362 -377 363 -380 1
-4 -65 -77 -147 -162 l-149 -155 -176 183 -177 182 -84 -112 c-504 -671 -1219
-1272 -1953 -1642 -419 -211 -737 -322 -1076 -375 -369 -57 -1032 -101 -1552
-101 l-243 0 0 400 0 400 605 0 605 0 0 336 0 336 -318 -4 -317 -3 -67 -33
c-92 -45 -177 -150 -209 -259 l-12 -43 -269 0 -268 0 0 800 0 800 805 0 c558
0 820 -3 857 -11 98 -21 137 -47 280 -187 l136 -134 274 4 c256 4 279 6 371
31 304 81 520 267 611 523 22 62 46 159 46 184 0 6 -147 10 -382 10 l-383 0
-96 43 c-242 110 -457 314 -574 547 -79 158 -123 340 -132 545 -5 116 9 343
24 381 16 41 213 -21 323 -101 71 -52 127 -132 176 -250 147 -356 325 -570
533 -640 59 -20 93 -23 309 -28 l243 -6 -6 72 c-33 369 -136 675 -318 947
-313 467 -826 751 -1539 850 -452 63 -789 15 -958 -137 -63 -56 -93 -102 -119
-180 -27 -83 -34 -165 -21 -268 25 -207 95 -346 202 -401 53 -28 146 -30 202
-5 129 57 195 168 208 351 l3 35 219 3 219 2 -6 -137 c-9 -238 -79 -400 -224
-519 -145 -118 -410 -186 -598 -153 -302 51 -525 248 -623 549 -53 162 -69
386 -38 526 85 391 363 669 773 773 210 53 316 60 968 56 442 -2 576 -6 685
-19z"/>
<path d="M1190 2670 l0 -250 240 0 240 0 0 250 0 250 -240 0 -240 0 0 -250z"/>
</g>
</svg>
