<?xml version="1.0" standalone="no"?>
<!DOCTYPE svg PUBLIC "-//W3C//DTD SVG 20010904//EN"
 "http://www.w3.org/TR/2001/REC-SVG-20010904/DTD/svg10.dtd">
<svg version="1.0" xmlns="http://www.w3.org/2000/svg"
 width="700.000000pt" height="700.000000pt" viewBox="0 0 700.000000 700.000000"
 preserveAspectRatio="xMidYMid meet">
<metadata>
Created by potrace 1.11, written by Peter Selinger 2001-2013
</metadata>
<g transform="translate(0.000000,700.000000) scale(0.100000,-0.100000)"
fill="#000000" stroke="none">
<path d="M1710 6556 c-426 -49 -737 -189 -980 -442 -238 -248 -360 -567 -347
-909 18 -490 247 -869 646 -1070 81 -40 246 -92 341 -106 108 -15 315 -6 431
20 70 16 197 59 280 95 13 6 21 -5 39 -51 50 -125 123 -258 194 -352 14 -19
26 -37 26 -40 0 -3 -441 -5 -980 -3 l-980 2 0 -1140 0 -1140 110 0 110 0 0
-495 0 -495 398 0 c772 0 1374 37 1817 112 204 34 347 73 550 148 742 277
1402 708 1995 1304 l175 176 142 -142 143 -143 448 448 447 447 -389 389 -388
388 43 7 c62 9 162 43 217 74 72 39 182 156 220 232 63 129 62 110 62 927 l0
743 -632 0 -631 0 -141 138 c-482 471 -1099 748 -1921 864 -136 19 -204 21
-740 24 -435 2 -620 -1 -705 -10z m1390 -450 c751 -108 1315 -367 1714 -787
158 -165 269 -329 368 -539 78 -166 77 -163 138 -226 66 -67 144 -107 222
-112 l58 -4 0 331 0 331 220 0 220 0 0 -502 c0 -487 -1 -504 -20 -536 -36 -58
-58 -62 -365 -62 l-275 0 0 -243 c0 -208 2 -246 16 -267 9 -14 170 -179 358
-368 l341 -342 -138 -137 -137 -138 -158 158 c-86 86 -160 157 -163 157 -3 0
-41 -46 -85 -102 -420 -546 -1078 -1085 -1713 -1403 -248 -124 -569 -251 -758
-300 -308 -81 -1069 -145 -1715 -145 l-188 0 0 350 0 350 550 0 550 0 0 296 0
296 -292 -4 c-275 -3 -296 -5 -340 -25 -71 -33 -144 -111 -184 -199 l-35 -74
-237 2 -237 3 -3 698 -2 697 737 0 c451 0 755 -4 781 -10 82 -19 132 -52 251
-166 l119 -114 216 0 c171 0 235 4 313 19 354 69 575 267 647 579 l14 62 -348
0 -349 0 -89 39 c-220 95 -418 276 -520 476 -45 88 -60 128 -90 240 -24 91
-27 116 -27 285 0 102 4 211 8 243 8 54 10 57 37 57 15 0 59 -9 96 -21 169
-51 252 -132 339 -328 110 -250 253 -427 408 -506 78 -39 78 -39 235 -46 86
-4 197 -8 246 -8 l88 -1 -7 73 c-48 532 -301 965 -725 1239 -264 172 -594 281
-1010 333 -184 24 -467 17 -589 -14 -170 -43 -294 -137 -342 -259 -19 -48 -23
-76 -23 -172 1 -216 66 -364 186 -424 60 -30 114 -33 180 -10 102 34 168 127
190 267 l13 77 192 0 193 0 0 -98 c0 -334 -187 -549 -522 -602 -339 -54 -655
122 -773 431 -42 110 -55 175 -61 309 -5 106 -3 138 15 213 90 376 397 625
846 686 44 6 94 13 110 15 17 2 291 3 610 1 478 -2 600 -5 695 -19z"/>
<path d="M1440 2780 l0 -220 220 0 220 0 0 220 0 220 -220 0 -220 0 0 -220z"/>
</g>
</svg>
