<?xml version="1.0" standalone="no"?>
<!DOCTYPE svg PUBLIC "-//W3C//DTD SVG 20010904//EN"
 "http://www.w3.org/TR/2001/REC-SVG-20010904/DTD/svg10.dtd">
<svg version="1.0" xmlns="http://www.w3.org/2000/svg"
 width="700.000000pt" height="700.000000pt" viewBox="0 0 700.000000 700.000000"
 preserveAspectRatio="xMidYMid meet">
<metadata>
Created by potrace 1.11, written by Peter Selinger 2001-2013
</metadata>
<g transform="translate(0.000000,700.000000) scale(0.100000,-0.100000)"
fill="#000000" stroke="none">
<path d="M156 6888 c4 -7 51 -73 104 -147 52 -73 108 -152 124 -175 16 -22
162 -228 325 -456 162 -228 314 -441 336 -473 22 -31 142 -201 268 -376 125
-176 227 -323 227 -328 0 -5 -22 -41 -50 -81 -28 -40 -50 -74 -50 -76 0 -2
-18 -34 -41 -71 -74 -123 -167 -339 -214 -500 -40 -135 -66 -252 -80 -360 -3
-28 -8 -64 -11 -80 -9 -58 -12 -401 -4 -480 41 -411 167 -779 376 -1097 35
-54 64 -102 64 -106 0 -5 -7 -17 -16 -27 -31 -40 -466 -641 -491 -680 -14 -22
-29 -42 -33 -45 -3 -3 -40 -52 -82 -110 -41 -58 -207 -287 -368 -510 -161
-223 -322 -445 -358 -494 -35 -48 -58 -85 -50 -80 7 4 96 67 198 139 102 73
320 228 485 345 165 118 386 274 490 349 105 74 209 148 232 165 23 17 89 64
145 104 57 40 166 118 243 173 77 55 146 103 153 106 7 3 49 -19 95 -49 334
-222 662 -340 1097 -396 115 -14 536 -6 592 12 7 3 33 7 58 10 115 13 383 87
495 136 225 98 296 135 441 230 42 28 79 50 83 50 5 -1 219 -155 1429 -1033
184 -133 343 -249 355 -257 12 -8 55 -39 96 -69 41 -30 70 -48 66 -40 -7 12
-158 224 -763 1074 -35 50 -70 99 -78 110 -125 172 -537 753 -541 763 -3 7 17
46 44 85 143 207 256 457 336 747 89 319 98 789 21 1131 -39 174 -101 359
-177 521 -45 96 -149 275 -194 334 -12 17 -23 34 -23 38 0 5 28 47 63 94 34
47 69 96 77 108 8 13 96 134 195 269 99 136 187 256 195 268 16 24 358 497
387 536 10 13 56 77 103 141 47 65 154 214 238 330 84 116 147 208 140 204 -7
-4 -158 -112 -336 -238 -301 -215 -358 -256 -437 -310 -85 -60 -525 -373 -555
-395 -19 -15 -117 -85 -218 -156 -101 -72 -232 -165 -292 -207 -59 -43 -112
-78 -117 -78 -4 0 -35 19 -68 42 -187 130 -444 250 -680 319 -150 44 -268 67
-430 86 -84 9 -441 10 -505 1 -25 -4 -72 -10 -105 -14 -33 -5 -62 -8 -65 -9
-3 -1 -18 -4 -35 -8 -16 -4 -45 -9 -64 -12 -115 -19 -377 -110 -531 -184 -127
-61 -314 -170 -330 -191 -3 -4 -14 -10 -26 -14 -15 -4 -35 5 -76 36 -30 24
-75 57 -99 74 -108 77 -338 243 -753 544 -246 179 -460 334 -476 345 -15 11
-66 47 -112 81 -302 220 -449 324 -442 312z m3478 -1793 c54 -3 101 -7 105 -9
4 -3 25 -7 46 -9 100 -12 268 -66 410 -133 56 -26 204 -111 215 -123 3 -4 32
-26 65 -50 318 -235 565 -657 611 -1046 3 -22 7 -51 10 -65 6 -32 6 -287 0
-320 -3 -14 -10 -59 -15 -100 -28 -195 -115 -423 -235 -610 -116 -180 -302
-364 -491 -486 -65 -41 -235 -127 -275 -138 -14 -4 -39 -14 -56 -22 -18 -7
-72 -23 -120 -35 -111 -26 -98 -24 -239 -44 -85 -13 -313 -6 -410 11 -16 3
-41 7 -55 9 -143 19 -400 121 -555 219 -146 94 -320 253 -418 383 -112 147
-237 389 -262 507 -2 11 -11 46 -19 76 -18 65 -20 78 -42 240 -6 51 -6 278 1
325 32 212 72 352 151 520 49 105 171 291 233 356 101 106 139 141 216 203
260 209 595 335 910 345 38 1 71 4 74 6 2 3 13 3 25 0 12 -2 65 -6 120 -10z"/>
<path d="M4775 6595 c-58 -21 -93 -45 -133 -90 -161 -183 -36 -471 207 -481
246 -10 392 261 249 462 -55 76 -131 116 -228 119 -36 1 -78 -4 -95 -10z"/>
<path d="M464 5246 c-180 -66 -287 -224 -280 -414 1 -42 9 -95 17 -117 19 -56
72 -139 110 -172 17 -15 37 -33 43 -38 28 -26 130 -66 188 -74 271 -38 504
184 481 459 -22 264 -309 447 -559 356z"/>
<path d="M6439 2239 c-86 -13 -163 -69 -205 -149 -26 -49 -26 -181 0 -233 82
-166 303 -203 436 -75 51 50 74 111 75 193 0 144 -97 249 -250 270 -5 1 -31
-2 -56 -6z"/>
<path d="M2085 729 c-42 -12 -109 -71 -130 -114 -35 -76 -17 -180 43 -241 133
-135 366 -38 366 151 -1 144 -139 245 -279 204z"/>
</g>
</svg>
