<?xml version="1.0" encoding="UTF-8"?><svg id="Capa_1" xmlns="http://www.w3.org/2000/svg" viewBox="0 0 310.272 71.702"><defs><style>.cls-1{fill:#fff;stroke-width:0px;}</style></defs><path class="cls-1" d="M2.889,66.42c-1.595,0-2.889-1.293-2.889-2.888V29.648c0-1.595,1.293-2.889,2.889-2.889s2.889,1.293,2.889,2.889v33.883c0,1.595-1.293,2.888-2.889,2.888Z"/><path class="cls-1" d="M23.92,66.42c-1.595,0-2.889-1.293-2.889-2.888V29.648c0-1.595,1.293-2.889,2.889-2.889s2.889,1.293,2.889,2.889v33.883c0,1.595-1.293,2.888-2.889,2.888Z"/><path class="cls-1" d="M44.951,66.42c-1.595,0-2.889-1.293-2.889-2.888V29.648c0-1.595,1.293-2.889,2.889-2.889s2.889,1.293,2.889,2.889v33.883c0,1.595-1.293,2.888-2.889,2.888Z"/><circle class="cls-1" cx="23.92" cy="10.516" r="10.516"/><circle class="cls-1" cx="221.664" cy="36.317" r="12.317"/><path class="cls-1" d="M116.612,65.008h-51.799c-1.595,0-2.889-1.293-2.889-2.888s1.293-2.888,2.889-2.888h48.91V10.516c0-1.595,1.293-2.889,2.889-2.889s2.889,1.293,2.889,2.889v51.604c0,1.595-1.293,2.888-2.889,2.888Z"/><circle class="cls-1" cx="261.329" cy="18.402" r="12.317"/><path class="cls-1" d="M261.327,69.438c-.61,0-1.225-.193-1.748-.591-1.269-.967-1.514-2.779-.548-4.048l46.054-60.464c.966-1.269,2.78-1.514,4.048-.548,1.269.967,1.514,2.779.548,4.048l-46.054,60.464c-.568.746-1.429,1.139-2.3,1.139Z"/><path class="cls-1" d="M162.648,71.702c-.284,0-.571-.042-.853-.129-1.21-.374-2.035-1.493-2.035-2.76v-28.475h-18.568c-1.071,0-2.055-.593-2.555-1.541-.5-.947-.434-2.094.171-2.979l21.456-31.364c.716-1.045,2.028-1.503,3.238-1.129,1.21.374,2.035,1.493,2.035,2.76v28.475h18.568c1.071,0,2.055.593,2.555,1.541s.434,2.094-.171,2.979l-21.456,31.364c-.549.802-1.449,1.258-2.385,1.258ZM165.536,40.338v19.137l13.092-19.137h-13.092ZM146.667,34.561h13.092V15.424l-13.092,19.137Z"/></svg>