<?xml version="1.0" encoding="utf-8"?>
<!-- Generator: Adobe Illustrator 28.2.0, SVG Export Plug-In . SVG Version: 6.00 Build 0)  -->
<!DOCTYPE svg PUBLIC "-//W3C//DTD SVG 1.1//EN" "http://www.w3.org/Graphics/SVG/1.1/DTD/svg11.dtd" [
	<!ENTITY ns_extend "http://ns.adobe.com/Extensibility/1.0/">
	<!ENTITY ns_ai "http://ns.adobe.com/AdobeIllustrator/10.0/">
	<!ENTITY ns_graphs "http://ns.adobe.com/Graphs/1.0/">
	<!ENTITY ns_vars "http://ns.adobe.com/Variables/1.0/">
	<!ENTITY ns_imrep "http://ns.adobe.com/ImageReplacement/1.0/">
	<!ENTITY ns_sfw "http://ns.adobe.com/SaveForWeb/1.0/">
	<!ENTITY ns_custom "http://ns.adobe.com/GenericCustomNamespace/1.0/">
	<!ENTITY ns_adobe_xpath "http://ns.adobe.com/XPath/1.0/">
]>
<svg version="1.1" id="Capa_1" xmlns:x="&ns_extend;" xmlns:i="&ns_ai;" xmlns:graph="&ns_graphs;"
	 xmlns="http://www.w3.org/2000/svg" xmlns:xlink="http://www.w3.org/1999/xlink" x="0px" y="0px" viewBox="0 0 310.3 71.7"
	 style="enable-background:new 0 0 310.3 71.7;" xml:space="preserve">
<style type="text/css">
	.st0{fill:#A6A6A6;}
</style>
<metadata>
	<sfw  xmlns="&ns_sfw;">
		<slices></slices>
		<sliceSourceBounds  bottomLeftOrigin="true" height="71.7" width="310.3" x="0" y="0"></sliceSourceBounds>
	</sfw>
</metadata>
<path class="st0" d="M2.9,66.4c-1.6,0-2.9-1.3-2.9-2.9V29.6c0-1.6,1.3-2.9,2.9-2.9s2.9,1.3,2.9,2.9v33.9C5.8,65.1,4.5,66.4,2.9,66.4
	L2.9,66.4z"/>
<path class="st0" d="M23.9,66.4c-1.6,0-2.9-1.3-2.9-2.9V29.6c0-1.6,1.3-2.9,2.9-2.9s2.9,1.3,2.9,2.9v33.9
	C26.8,65.1,25.5,66.4,23.9,66.4L23.9,66.4z"/>
<path class="st0" d="M45,66.4c-1.6,0-2.9-1.3-2.9-2.9V29.6c0-1.6,1.3-2.9,2.9-2.9s2.9,1.3,2.9,2.9v33.9C47.8,65.1,46.5,66.4,45,66.4
	L45,66.4z"/>
<circle class="st0" cx="23.9" cy="10.5" r="10.5"/>
<circle class="st0" cx="221.7" cy="36.3" r="12.3"/>
<path class="st0" d="M116.6,65H64.8c-1.6,0-2.9-1.3-2.9-2.9s1.3-2.9,2.9-2.9h48.9V10.5c0-1.6,1.3-2.9,2.9-2.9s2.9,1.3,2.9,2.9v51.6
	C119.5,63.7,118.2,65,116.6,65z"/>
<ellipse transform="matrix(0.351 -0.9364 0.9364 0.351 152.3317 256.6409)" class="st0" cx="261.3" cy="18.4" rx="12.3" ry="12.3"/>
<path class="st0" d="M261.3,69.4c-0.6,0-1.2-0.2-1.7-0.6c-1.3-1-1.5-2.8-0.5-4l46.1-60.5c1-1.3,2.8-1.5,4-0.5c1.3,1,1.5,2.8,0.5,4
	l-46.1,60.5C263.1,69,262.2,69.4,261.3,69.4L261.3,69.4z"/>
<path class="st0" d="M162.6,71.7c-0.3,0-0.6,0-0.9-0.1c-1.2-0.4-2-1.5-2-2.8V40.3h-18.6c-1.1,0-2.1-0.6-2.6-1.5s-0.4-2.1,0.2-3
	l21.5-31.4c0.7-1,2-1.5,3.2-1.1s2,1.5,2,2.8v28.5H184c1.1,0,2.1,0.6,2.6,1.5s0.4,2.1-0.2,3L165,70.4
	C164.5,71.2,163.6,71.7,162.6,71.7L162.6,71.7z M165.5,40.3v19.1l13.1-19.1C178.6,40.3,165.5,40.3,165.5,40.3z M146.7,34.6h13.1
	V15.4L146.7,34.6z"/>
</svg>
