<?xml version="1.0" encoding="utf-8"?>
<!-- Generator: Adobe Illustrator 16.0.0, SVG Export Plug-In . SVG Version: 6.00 Build 0)  -->
<!DOCTYPE svg PUBLIC "-//W3C//DTD SVG 1.1//EN" "http://www.w3.org/Graphics/SVG/1.1/DTD/svg11.dtd">
<svg version="1.1" id="Capa_1" xmlns="http://www.w3.org/2000/svg" xmlns:xlink="http://www.w3.org/1999/xlink" x="0px" y="0px"
	 width="46px" height="46px" viewBox="0 0 46 46" enable-background="new 0 0 46 46" xml:space="preserve">
<g id="XMLID_1_">
	<g>
		<path fill="#FFFFFF" d="M39.6,14.3c-0.1,0.03-0.21,0.07-0.319,0.1c-3.891,1.04-7.78,2.08-11.67,3.11
			c-0.32,0.08-0.44,0.22-0.48,0.54c-0.91,6.03-1.82,12.061-2.729,18.08c-0.44,2.93-0.891,5.86-1.33,8.79
			c-0.011,0.09-0.04,0.17-0.12,0.26c-0.141-0.92-0.28-1.84-0.42-2.76c-1.2-7.89-2.41-15.78-3.561-23.68
			c-0.12-0.81-0.42-1.13-1.2-1.33c-3.68-0.93-7.34-1.93-11-2.91c-0.14-0.03-0.27-0.07-0.39-0.11c0-0.03,0-0.05,0-0.08
			c1.63-0.21,3.25-0.42,4.88-0.63c2.561-0.33,5.12-0.66,7.681-0.98c0.239-0.03,0.319-0.17,0.39-0.36c1.16-3.11,2.33-6.22,3.49-9.33
			c0.05-0.12,0.1-0.25,0.18-0.44c0.07,0.16,0.12,0.24,0.16,0.34c1.149,3.07,2.31,6.14,3.45,9.23c0.12,0.34,0.3,0.46,0.659,0.51
			c4.011,0.5,8.03,1.02,12.04,1.54C39.41,14.2,39.5,14.22,39.6,14.3z"/>
	</g>
</g>
<path fill="#FFFFFF" d="M36.679,27.527c-1.318-1.396-2.645-2.782-3.97-4.172c-1.509-1.581-3.017-3.161-4.526-4.742
	c-0.025,0.005-0.051,0.009-0.076,0.014c0.021,0.074,0.037,0.148,0.062,0.22c1.195,3.587,2.39,7.172,3.593,10.757
	c0.048,0.142,0.156,0.285,0.275,0.376c1.513,1.145,3.031,2.281,4.549,3.418c0.077,0.058,0.164,0.101,0.272,0.165
	c0.013-0.091,0.024-0.135,0.024-0.178c0.002-1.814,0.007-3.631-0.007-5.446C36.874,27.801,36.78,27.635,36.679,27.527z"/>
<path fill="#FFFFFF" d="M17.669,18.842c-2.795,2.927-5.591,5.854-8.379,8.791c-0.104,0.11-0.17,0.302-0.171,0.456
	c-0.013,1.758-0.008,3.517-0.007,5.274c0,0.086,0.016,0.172,0.029,0.299c0.129-0.09,0.224-0.151,0.313-0.219
	c1.48-1.11,2.964-2.216,4.436-3.338c0.161-0.122,0.302-0.321,0.366-0.514c1.046-3.102,2.079-6.206,3.113-9.31
	c0.171-0.513,0.34-1.027,0.509-1.541c-0.021-0.012-0.04-0.025-0.061-0.037C17.769,18.75,17.716,18.793,17.669,18.842z"/>
<path fill="#FFFFFF" d="M43.416,25.229c-0.708-1.416-1.426-2.827-2.115-4.253c-0.148-0.308-0.336-0.436-0.667-0.487
	c-2.719-0.422-5.434-0.863-8.15-1.297c-0.587-0.094-1.174-0.183-1.762-0.275c0.04,0.121,0.101,0.184,0.168,0.24
	c2.493,2.102,4.983,4.204,7.485,6.296c0.125,0.105,0.33,0.162,0.498,0.163c1.445,0.014,2.891,0.008,4.336,0.007
	c0.11,0,0.221-0.011,0.378-0.02C43.518,25.453,43.471,25.34,43.416,25.229z"/>
<path fill="#FFFFFF" d="M15.346,19.006c-0.198,0.019-0.29,0.022-0.38,0.037c-3.244,0.519-6.487,1.043-9.732,1.554
	c-0.246,0.039-0.381,0.138-0.49,0.358c-0.725,1.475-1.464,2.941-2.197,4.412c-0.045,0.09-0.08,0.186-0.133,0.308
	c0.085,0.016,0.118,0.028,0.151,0.028c1.551,0,3.102,0.005,4.652-0.007c0.144-0.001,0.312-0.084,0.426-0.179
	c2.474-2.075,4.941-4.156,7.409-6.237C15.131,19.214,15.203,19.14,15.346,19.006z"/>
<path fill="#FFFFFF" d="M9.501,5.674C9.52,5.915,9.664,6.007,9.834,6.111c2.706,1.673,5.41,3.348,8.115,5.023
	c0.094,0.058,0.191,0.11,0.362,0.207c-0.074-0.165-0.109-0.257-0.154-0.344c-1.244-2.379-2.534-4.734-3.712-7.145
	c-0.466-0.954-1.046-1.614-2.101-1.808c-0.066-0.013-0.13-0.047-0.195-0.07c-0.987-0.358-1.975-0.716-3.011-1.091
	c-0.005,0.112-0.015,0.168-0.01,0.224C9.254,2.629,9.387,4.151,9.501,5.674z"/>
<path fill="#FFFFFF" d="M36.272,5.943c0.104-0.064,0.188-0.23,0.2-0.357c0.082-0.805,0.143-1.612,0.209-2.418
	c0.063-0.769,0.126-1.538,0.193-2.347c-0.129,0.033-0.217,0.047-0.299,0.077c-1.369,0.495-2.739,0.989-4.103,1.497
	c-0.135,0.05-0.27,0.181-0.339,0.31c-1.454,2.76-2.899,5.525-4.345,8.291c-0.033,0.063-0.048,0.133-0.077,0.222
	c0.06-0.017,0.084-0.019,0.103-0.03C30.637,9.442,33.458,7.698,36.272,5.943z"/>
</svg>
