<?xml version="1.0" standalone="no"?>
<!DOCTYPE svg PUBLIC "-//W3C//DTD SVG 20010904//EN"
 "http://www.w3.org/TR/2001/REC-SVG-20010904/DTD/svg10.dtd">
<svg version="1.0" xmlns="http://www.w3.org/2000/svg"
 width="700.000000pt" height="700.000000pt" viewBox="0 0 700.000000 700.000000"
 preserveAspectRatio="xMidYMid meet">
<metadata>
Created by potrace 1.11, written by Peter Selinger 2001-2013
</metadata>
<g transform="translate(0.000000,700.000000) scale(0.100000,-0.100000)"
fill="#000000" stroke="none">
<path d="M1640 6994 c-241 -15 -428 -50 -615 -114 -479 -165 -818 -518 -954
-995 -44 -157 -55 -236 -55 -395 2 -747 447 -1302 1125 -1401 199 -29 512 22
691 112 32 16 62 29 66 29 5 0 20 -28 33 -62 37 -103 111 -248 174 -343 33
-50 63 -94 67 -100 4 -7 -357 -9 -1078 -7 l-1084 2 0 -1300 0 -1300 120 0 120
0 0 -561 0 -561 758 5 c655 4 789 7 992 25 716 63 950 113 1415 300 322 130
668 314 990 527 382 252 632 460 1002 831 l282 283 155 -162 155 -162 59 60
c270 273 922 959 920 966 -2 5 -190 203 -418 440 -228 237 -416 434 -418 438
-1 3 34 14 78 23 212 44 394 202 468 408 41 112 42 135 42 1000 l0 840 -698 0
-697 0 -114 120 c-542 576 -1288 919 -2251 1036 -108 13 -251 17 -705 19 -314
1 -595 1 -625 -1z m1285 -518 c747 -90 1372 -348 1810 -747 269 -245 472 -536
615 -883 59 -141 183 -249 321 -278 96 -20 89 -50 89 377 l0 375 243 -2 242
-3 0 -577 c0 -567 0 -577 -21 -604 -11 -15 -33 -37 -48 -48 -26 -20 -42 -21
-342 -24 l-314 -3 0 -277 0 -277 28 -41 c15 -23 189 -209 387 -414 198 -205
361 -375 362 -379 1 -3 -65 -76 -147 -161 l-149 -155 -178 183 -178 183 -87
-118 c-325 -446 -828 -924 -1340 -1275 -447 -307 -1048 -596 -1433 -689 -349
-84 -1147 -149 -1826 -149 l-219 0 0 400 0 400 605 0 605 0 0 336 0 335 -317
-3 -318 -3 -60 -28 c-77 -36 -142 -106 -187 -199 -20 -40 -38 -81 -41 -90 -6
-17 -28 -18 -272 -18 l-265 0 0 800 0 800 799 0 c494 0 818 -4 851 -10 107
-20 155 -52 301 -197 l137 -136 239 6 c188 4 258 9 334 25 380 82 626 306 704
640 8 35 15 70 15 78 0 12 -57 14 -382 14 l-383 0 -88 39 c-175 79 -361 226
-472 376 -151 204 -228 431 -242 713 -5 112 8 333 23 385 14 47 216 -16 330
-104 71 -55 126 -138 179 -271 102 -253 261 -469 415 -563 105 -64 149 -72
418 -79 226 -6 242 -5 242 12 0 9 -7 73 -14 142 -82 725 -508 1279 -1186 1544
-365 142 -876 223 -1187 187 -222 -26 -351 -77 -454 -180 -72 -72 -102 -134
-121 -246 -25 -154 26 -386 111 -502 60 -82 175 -121 274 -93 122 33 226 187
227 332 0 71 -11 68 227 68 l216 0 -6 -132 c-6 -154 -21 -221 -78 -336 -99
-202 -303 -322 -589 -347 -241 -20 -510 107 -655 310 -127 177 -200 466 -173
684 65 535 471 865 1118 911 202 14 1156 4 1305 -14z"/>
<path d="M1180 2670 l0 -250 245 0 245 0 0 250 0 250 -245 0 -245 0 0 -250z"/>
</g>
</svg>
